<mxfile host="65bd71144e">
    <diagram id="rvn8fAXstifAfgOMZmFs" name="Page-1">
        <mxGraphModel dx="737" dy="691" grid="1" gridSize="10" guides="1" tooltips="1" connect="1" arrows="1" fold="1" page="1" pageScale="1" pageWidth="850" pageHeight="1100" math="0" shadow="0">
            <root>
                <mxCell id="0"/>
                <mxCell id="1" parent="0"/>
                <mxCell id="ZBV67HU_Rh_97KaG7R70-6" value="" style="edgeStyle=orthogonalEdgeStyle;rounded=0;orthogonalLoop=1;jettySize=auto;html=1;" parent="1" source="ZBV67HU_Rh_97KaG7R70-1" edge="1">
                    <mxGeometry relative="1" as="geometry">
                        <mxPoint x="400" y="120" as="targetPoint"/>
                    </mxGeometry>
                </mxCell>
                <mxCell id="ZBV67HU_Rh_97KaG7R70-1" value="start&lt;br&gt;find min max index" style="ellipse;whiteSpace=wrap;html=1;" parent="1" vertex="1">
                    <mxGeometry x="340" y="10" width="120" height="80" as="geometry"/>
                </mxCell>
                <mxCell id="ZBV67HU_Rh_97KaG7R70-10" value="" style="edgeStyle=orthogonalEdgeStyle;rounded=0;orthogonalLoop=1;jettySize=auto;html=1;" parent="1" source="ZBV67HU_Rh_97KaG7R70-7" target="ZBV67HU_Rh_97KaG7R70-9" edge="1">
                    <mxGeometry relative="1" as="geometry"/>
                </mxCell>
                <mxCell id="ZBV67HU_Rh_97KaG7R70-7" value="new_list = list()" style="whiteSpace=wrap;html=1;" parent="1" vertex="1">
                    <mxGeometry x="340" y="218" width="120" height="60" as="geometry"/>
                </mxCell>
                <mxCell id="ZBV67HU_Rh_97KaG7R70-12" value="" style="edgeStyle=orthogonalEdgeStyle;rounded=0;orthogonalLoop=1;jettySize=auto;html=1;" parent="1" source="ZBV67HU_Rh_97KaG7R70-9" target="ZBV67HU_Rh_97KaG7R70-11" edge="1">
                    <mxGeometry relative="1" as="geometry"/>
                </mxCell>
                <mxCell id="ZBV67HU_Rh_97KaG7R70-32" value="" style="edgeStyle=orthogonalEdgeStyle;rounded=0;orthogonalLoop=1;jettySize=auto;html=1;" parent="1" source="ZBV67HU_Rh_97KaG7R70-9" target="ZBV67HU_Rh_97KaG7R70-31" edge="1">
                    <mxGeometry relative="1" as="geometry">
                        <Array as="points">
                            <mxPoint x="210" y="352"/>
                            <mxPoint x="210" y="650"/>
                        </Array>
                    </mxGeometry>
                </mxCell>
                <mxCell id="ZBV67HU_Rh_97KaG7R70-33" value="окончание цикла" style="edgeLabel;html=1;align=center;verticalAlign=middle;resizable=0;points=[];" parent="ZBV67HU_Rh_97KaG7R70-32" connectable="0" vertex="1">
                    <mxGeometry x="-0.7273" y="-2" relative="1" as="geometry">
                        <mxPoint as="offset"/>
                    </mxGeometry>
                </mxCell>
                <mxCell id="ZBV67HU_Rh_97KaG7R70-9" value="for i in data" style="rhombus;whiteSpace=wrap;html=1;" parent="1" vertex="1">
                    <mxGeometry x="360" y="312" width="80" height="80" as="geometry"/>
                </mxCell>
                <mxCell id="ZBV67HU_Rh_97KaG7R70-14" value="" style="edgeStyle=orthogonalEdgeStyle;rounded=0;orthogonalLoop=1;jettySize=auto;html=1;" parent="1" source="ZBV67HU_Rh_97KaG7R70-11" target="ZBV67HU_Rh_97KaG7R70-18" edge="1">
                    <mxGeometry relative="1" as="geometry">
                        <mxPoint x="240" y="510" as="targetPoint"/>
                    </mxGeometry>
                </mxCell>
                <mxCell id="ZBV67HU_Rh_97KaG7R70-15" value="yes" style="edgeLabel;html=1;align=center;verticalAlign=middle;resizable=0;points=[];" parent="ZBV67HU_Rh_97KaG7R70-14" connectable="0" vertex="1">
                    <mxGeometry x="-0.1" y="-1" relative="1" as="geometry">
                        <mxPoint as="offset"/>
                    </mxGeometry>
                </mxCell>
                <mxCell id="ZBV67HU_Rh_97KaG7R70-20" value="" style="edgeStyle=orthogonalEdgeStyle;rounded=0;orthogonalLoop=1;jettySize=auto;html=1;entryX=1;entryY=0.5;entryDx=0;entryDy=0;exitX=1;exitY=0.5;exitDx=0;exitDy=0;" parent="1" source="ZBV67HU_Rh_97KaG7R70-11" target="ZBV67HU_Rh_97KaG7R70-9" edge="1">
                    <mxGeometry relative="1" as="geometry">
                        <mxPoint x="500" y="570" as="targetPoint"/>
                        <Array as="points">
                            <mxPoint x="500" y="460"/>
                            <mxPoint x="500" y="352"/>
                        </Array>
                    </mxGeometry>
                </mxCell>
                <mxCell id="ZBV67HU_Rh_97KaG7R70-21" value="no" style="edgeLabel;html=1;align=center;verticalAlign=middle;resizable=0;points=[];" parent="ZBV67HU_Rh_97KaG7R70-20" connectable="0" vertex="1">
                    <mxGeometry x="-0.45" y="-1" relative="1" as="geometry">
                        <mxPoint as="offset"/>
                    </mxGeometry>
                </mxCell>
                <mxCell id="ZBV67HU_Rh_97KaG7R70-11" value="if len(i) &amp;lt; 4" style="rhombus;whiteSpace=wrap;html=1;" parent="1" vertex="1">
                    <mxGeometry x="360" y="420" width="80" height="80" as="geometry"/>
                </mxCell>
                <mxCell id="ZBV67HU_Rh_97KaG7R70-18" value="new_list.append(i)" style="rounded=0;whiteSpace=wrap;html=1;" parent="1" vertex="1">
                    <mxGeometry x="230" y="510" width="120" height="60" as="geometry"/>
                </mxCell>
                <mxCell id="ZBV67HU_Rh_97KaG7R70-28" style="edgeStyle=orthogonalEdgeStyle;rounded=0;orthogonalLoop=1;jettySize=auto;html=1;exitX=1;exitY=0.5;exitDx=0;exitDy=0;entryX=1;entryY=0.5;entryDx=0;entryDy=0;" parent="1" source="ZBV67HU_Rh_97KaG7R70-18" edge="1" target="ZBV67HU_Rh_97KaG7R70-9">
                    <mxGeometry relative="1" as="geometry">
                        <mxPoint x="620" y="520" as="targetPoint"/>
                        <Array as="points">
                            <mxPoint x="500" y="540"/>
                            <mxPoint x="500" y="352"/>
                        </Array>
                        <mxPoint x="540" y="610" as="sourcePoint"/>
                    </mxGeometry>
                </mxCell>
                <mxCell id="ZBV67HU_Rh_97KaG7R70-35" value="" style="edgeStyle=orthogonalEdgeStyle;rounded=0;orthogonalLoop=1;jettySize=auto;html=1;" parent="1" source="ZBV67HU_Rh_97KaG7R70-31" target="ZBV67HU_Rh_97KaG7R70-34" edge="1">
                    <mxGeometry relative="1" as="geometry"/>
                </mxCell>
                <mxCell id="ZBV67HU_Rh_97KaG7R70-31" value="return (max[1], min[1])" style="shape=parallelogram;perimeter=parallelogramPerimeter;whiteSpace=wrap;html=1;fixedSize=1;" parent="1" vertex="1">
                    <mxGeometry x="300" y="620" width="160" height="60" as="geometry"/>
                </mxCell>
                <mxCell id="ZBV67HU_Rh_97KaG7R70-34" value="выход" style="ellipse;whiteSpace=wrap;html=1;" parent="1" vertex="1">
                    <mxGeometry x="320" y="730" width="120" height="60" as="geometry"/>
                </mxCell>
                <mxCell id="3" value="" style="edgeStyle=none;html=1;" edge="1" parent="1" source="2" target="ZBV67HU_Rh_97KaG7R70-7">
                    <mxGeometry relative="1" as="geometry"/>
                </mxCell>
                <mxCell id="2" value="data = введите список" style="shape=parallelogram;perimeter=parallelogramPerimeter;whiteSpace=wrap;html=1;fixedSize=1;" vertex="1" parent="1">
                    <mxGeometry x="310" y="120" width="180" height="60" as="geometry"/>
                </mxCell>
            </root>
        </mxGraphModel>
    </diagram>
</mxfile>